<?xml version="1.0" encoding="utf-8"?>
<!-- Generator: Adobe Illustrator 21.0.0, SVG Export Plug-In . SVG Version: 6.00 Build 0)  -->
<svg version="1.1" id="Layer_1" xmlns="http://www.w3.org/2000/svg" xmlns:xlink="http://www.w3.org/1999/xlink" x="0px" y="0px"
	 viewBox="0 0 158 38" enable-background="new 0 0 158 38" xml:space="preserve">
<g>
	<g>
		<g>
			<path fill="#009CDE" d="M119.5,9.1h-8.3c-0.6,0-1,0.4-1.1,1l-3.3,21.2c-0.1,0.4,0.3,0.8,0.7,0.8h4.2c0.4,0,0.7-0.3,0.8-0.7l0.9-6
				c0.1-0.6,0.6-1,1.1-1h2.6c5.4,0,8.6-2.6,9.4-7.9c0.4-2.3,0-4.1-1.1-5.3C124.4,9.8,122.3,9.1,119.5,9.1z M120.5,16.8
				c-0.5,3-2.7,3-4.9,3h-1.2l0.9-5.5c0.1-0.3,0.3-0.6,0.7-0.6h0.6c1.5,0,2.9,0,3.6,0.9C120.5,15,120.7,15.8,120.5,16.8z"/>
			<path fill="#003087" d="M60.6,9.1h-8.3c-0.6,0-1,0.4-1.1,1l-3.3,21.2c-0.1,0.4,0.3,0.8,0.7,0.8h3.9c0.6,0,1-0.4,1.1-1l0.9-5.7
				c0.1-0.6,0.6-1,1.1-1h2.6c5.4,0,8.6-2.6,9.4-7.9c0.4-2.3,0-4.1-1.1-5.3C65.4,9.8,63.3,9.1,60.6,9.1z M61.5,16.8
				c-0.5,3-2.7,3-4.9,3h-1.2l0.9-5.5c0.1-0.3,0.3-0.6,0.7-0.6h0.6c1.5,0,2.9,0,3.6,0.9C61.6,15,61.7,15.8,61.5,16.8z"/>
			<path fill="#003087" d="M85.3,16.7h-4c-0.3,0-0.6,0.2-0.7,0.6l-0.2,1.1L80.2,18c-0.9-1.2-2.8-1.7-4.7-1.7c-4.4,0-8.1,3.3-8.8,8
				c-0.4,2.3,0.2,4.5,1.5,6.1c1.2,1.4,2.9,2,5,2c3.5,0,5.5-2.3,5.5-2.3l-0.2,1.1c-0.1,0.4,0.3,0.8,0.7,0.8h3.6c0.6,0,1-0.4,1.1-1
				L86,17.5C86,17.1,85.7,16.7,85.3,16.7z M79.8,24.4c-0.4,2.3-2.2,3.8-4.5,3.8c-1.1,0-2.1-0.4-2.7-1.1c-0.6-0.7-0.8-1.7-0.6-2.8
				c0.4-2.2,2.2-3.8,4.4-3.8c1.1,0,2,0.4,2.6,1.1C79.7,22.3,79.9,23.3,79.8,24.4z"/>
			<path fill="#009CDE" d="M144.2,16.7h-4c-0.3,0-0.6,0.2-0.7,0.6l-0.2,1.1l-0.3-0.4c-0.9-1.2-2.8-1.7-4.7-1.7c-4.4,0-8.1,3.3-8.8,8
				c-0.4,2.3,0.2,4.5,1.5,6.1c1.2,1.4,2.9,2,5,2c3.5,0,5.5-2.3,5.5-2.3l-0.2,1.1c-0.1,0.4,0.3,0.8,0.7,0.8h3.6c0.6,0,1-0.4,1.1-1
				l2.1-13.6C145,17.1,144.7,16.7,144.2,16.7z M138.7,24.4c-0.4,2.3-2.2,3.8-4.5,3.8c-1.1,0-2.1-0.4-2.7-1.1
				c-0.6-0.7-0.8-1.7-0.6-2.8c0.4-2.2,2.2-3.8,4.4-3.8c1.1,0,2,0.4,2.6,1.1C138.7,22.3,138.9,23.3,138.7,24.4z"/>
			<path fill="#003087" d="M106.4,16.7h-4c-0.4,0-0.7,0.2-1,0.5L96,25.3l-2.3-7.8c-0.1-0.5-0.6-0.8-1.1-0.8h-3.9
				c-0.5,0-0.8,0.5-0.7,0.9l4.4,12.9l-4.1,5.8c-0.3,0.5,0,1.1,0.6,1.1h4c0.4,0,0.7-0.2,0.9-0.5l13.2-19.1
				C107.3,17.3,106.9,16.7,106.4,16.7z"/>
			<path fill="#009CDE" d="M148.9,9.7l-3.4,21.6c-0.1,0.4,0.3,0.8,0.7,0.8h3.4c0.6,0,1-0.4,1.1-1l3.3-21.2c0.1-0.4-0.3-0.8-0.7-0.8
				h-3.8C149.3,9.1,149,9.3,148.9,9.7z"/>
		</g>
	</g>
	<g>
		<path fill="#009CDE" d="M31.6,10.2c0.4-2.8,0-4.8-1.5-6.5c-1.7-1.9-4.7-2.8-8.6-2.8H10.1c-0.8,0-1.5,0.6-1.6,1.4L3.8,32.2
			c-0.1,0.6,0.4,1.1,1,1.1h7l-0.5,3.1c-0.1,0.5,0.3,1,0.8,1H18c0.7,0,1.3-0.5,1.4-1.2l0.1-0.3l1.1-7l0.1-0.4
			c0.1-0.7,0.7-1.2,1.4-1.2h0.9c5.7,0,10.2-2.3,11.5-9c0.5-2.8,0.3-5.1-1.2-6.8C32.8,10.9,32.2,10.5,31.6,10.2L31.6,10.2"/>
		<path fill="#012169" d="M31.6,10.2c0.4-2.8,0-4.8-1.5-6.5c-1.7-1.9-4.7-2.8-8.6-2.8H10.1c-0.8,0-1.5,0.6-1.6,1.4L3.8,32.2
			c-0.1,0.6,0.4,1.1,1,1.1h7l1.8-11.1l-0.1,0.3c0.1-0.8,0.8-1.4,1.6-1.4h3.3c6.5,0,11.6-2.7,13.1-10.3
			C31.5,10.6,31.6,10.4,31.6,10.2"/>
		<path fill="#003087" d="M15.4,10.2c0.1-0.5,0.4-0.9,0.8-1.1C16.3,9.1,16.6,9,16.8,9h8.9c1.1,0,2,0.1,2.9,0.2
			c0.3,0,0.5,0.1,0.7,0.1c0.2,0.1,0.5,0.1,0.7,0.2c0.1,0,0.2,0.1,0.3,0.1c0.4,0.1,0.9,0.3,1.2,0.5c0.4-2.8,0-4.8-1.5-6.5
			c-1.7-1.9-4.7-2.8-8.6-2.8H10.1c-0.8,0-1.5,0.6-1.6,1.4L3.8,32.2c-0.1,0.6,0.4,1.1,1,1.1h7l1.8-11.1L15.4,10.2z"/>
	</g>
</g>
</svg>
